<svg xmlns="http://www.w3.org/2000/svg" viewBox="0 0 1200 675" width="1200" height="675"><defs><marker id="a" viewBox="0 0 10 10" refX="9" refY="5" markerWidth="8" markerHeight="8" orient="auto"><path d="M0 0L10 5L0 10z" fill="#5fb7ff"/></marker></defs><rect width="1200" height="675" fill="#f6f3ea"/><text x="40" y="78" text-anchor="start" font-family="Frank Ruhl Libre" font-weight="700" font-size="44" fill="#12121c">The one-hop wall</text><text x="40" y="120" text-anchor="start" font-family="Heebo" font-size="22" fill="#6d6d80">Nickerson's question crosses 5 entity types. Vector search only sees the first.</text><line x1="40" y1="150" x2="1160" y2="150" stroke="#dcd7c8" stroke-width="1"/><rect x="50" y="230" width="180" height="90" rx="6" fill="#f6f3ea" stroke="#12121c" stroke-width="2"/><text x="140" y="270" text-anchor="middle" font-family="Heebo" font-size="22" fill="#12121c">Accident report</text><text x="140" y="300" text-anchor="middle" font-family="Heebo" font-size="16" fill="#6d6d80">entry point</text><rect x="275" y="230" width="180" height="90" rx="6" fill="#f6f3ea" stroke="#5fb7ff" stroke-width="2"/><text x="365" y="270" text-anchor="middle" font-family="Heebo" font-size="22" fill="#12121c">Aircraft make</text><text x="365" y="300" text-anchor="middle" font-family="Heebo" font-size="16" fill="#6d6d80">hop 1</text><rect x="500" y="230" width="180" height="90" rx="6" fill="#f6f3ea" stroke="#5fb7ff" stroke-width="2"/><text x="590" y="270" text-anchor="middle" font-family="Heebo" font-size="22" fill="#12121c">Failure mode</text><text x="590" y="300" text-anchor="middle" font-family="Heebo" font-size="16" fill="#6d6d80">hop 2</text><rect x="725" y="230" width="180" height="90" rx="6" fill="#f6f3ea" stroke="#5fb7ff" stroke-width="2"/><text x="815" y="270" text-anchor="middle" font-family="Heebo" font-size="22" fill="#12121c">Conditions</text><text x="815" y="300" text-anchor="middle" font-family="Heebo" font-size="16" fill="#6d6d80">hop 3</text><rect x="950" y="230" width="180" height="90" rx="6" fill="#f6f3ea" stroke="#5fb7ff" stroke-width="2"/><text x="1040" y="270" text-anchor="middle" font-family="Heebo" font-size="22" fill="#12121c">Season</text><text x="1040" y="300" text-anchor="middle" font-family="Heebo" font-size="16" fill="#6d6d80">hop 4</text><line x1="230" y1="275" x2="272" y2="275" stroke="#5fb7ff" stroke-width="3" marker-end="url(#a)"/><line x1="455" y1="275" x2="497" y2="275" stroke="#5fb7ff" stroke-width="3" marker-end="url(#a)"/><line x1="680" y1="275" x2="722" y2="275" stroke="#5fb7ff" stroke-width="3" marker-end="url(#a)"/><line x1="905" y1="275" x2="947" y2="275" stroke="#5fb7ff" stroke-width="3" marker-end="url(#a)"/><line x1="252" y1="190" x2="252" y2="360" stroke="#12121c" stroke-width="4" stroke-dasharray="8 6"/><text x="252" y="388" text-anchor="middle" font-family="Heebo" font-size="18" fill="#12121c">one-hop wall</text><text x="50" y="450" text-anchor="start" font-family="Heebo" font-size="20" fill="#12121c">vector RAG — one similar chunk</text><rect x="50" y="465" width="180" height="18" rx="6" fill="#6d6d80"/><text x="50" y="530" text-anchor="start" font-family="Heebo" font-size="20" fill="#12121c">GraphRAG — 4 hops, one query</text><rect x="50" y="545" width="1080" height="18" rx="6" fill="#5fb7ff"/><circle cx="252" cy="554" r="5" fill="#12121c"/><circle cx="477" cy="554" r="5" fill="#12121c"/><circle cx="702" cy="554" r="5" fill="#12121c"/><circle cx="927" cy="554" r="5" fill="#12121c"/><line x1="40" y1="600" x2="1160" y2="600" stroke="#dcd7c8" stroke-width="1"/><text x="40" y="640" text-anchor="start" font-family="Heebo" font-size="18" fill="#6d6d80">27,378 reports · 313K nodes · Youtu-GraphRAG on a GH200 (Nickerson, 2026)</text></svg>