<svg xmlns="http://www.w3.org/2000/svg" viewBox="0 0 1200 675" width="1200" height="675"><rect width="1200" height="675" fill="#f6f3ea"/><text x="1160" y="62" text-anchor="end" font-family="Frank Ruhl Libre" font-weight="700" font-size="34" fill="#12121c">איפה יושב מקור האמת של העיצוב</text><line x1="100" y1="380" x2="1100" y2="380" stroke="#e4e4dc" stroke-width="2"/><line x1="600" y1="105" x2="600" y2="645" stroke="#e4e4dc" stroke-width="2"/><text x="110" y="408" text-anchor="start" font-family="Heebo" font-size="18" fill="#6d6d80">קובץ עיצוב סגור</text><text x="1090" y="408" text-anchor="end" font-family="Heebo" font-size="18" fill="#6d6d80">קוד</text><text x="612" y="125" text-anchor="start" font-family="Heebo" font-size="18" fill="#6d6d80">בענן של הספק</text><text x="612" y="638" text-anchor="start" font-family="Heebo" font-size="18" fill="#6d6d80">אצלכם במחשב</text><circle cx="300" cy="200" r="14" fill="#12121c"/><text x="300" y="245" text-anchor="middle" font-family="Heebo" font-weight="700" font-size="24" fill="#12121c">Figma</text><text x="300" y="272" text-anchor="middle" font-family="Heebo" font-size="16" fill="#6d6d80">946 משתני צבע ב-design system של עצמה</text><line x1="325" y1="200" x2="828" y2="200" stroke="#12121c" stroke-width="2"/><polygon points="828,193 844,200 828,207" fill="#12121c"/><text x="585" y="184" text-anchor="middle" font-family="Heebo" font-size="16" fill="#12121c">המודלים למדו קוד, לא primitives של Figma</text><circle cx="862" cy="200" r="18" fill="#3ecfb2" stroke="#12121c" stroke-width="2"/><text x="862" y="248" text-anchor="middle" font-family="Heebo" font-weight="700" font-size="24" fill="#12121c">Claude Design</text><text x="862" y="275" text-anchor="middle" font-family="Heebo" font-size="16" fill="#6d6d80">17.4.2026 · Pro / Max / Team / Enterprise</text><circle cx="1020" cy="330" r="10" fill="none" stroke="#6d6d80" stroke-width="2"/><text x="1002" y="336" text-anchor="end" font-family="Heebo" font-size="16" fill="#6d6d80">v0 (Vercel)</text><line x1="862" y1="292" x2="862" y2="492" stroke="#3ecfb2" stroke-width="2" stroke-dasharray="8 6"/><polygon points="855,492 862,506 869,492" fill="#3ecfb2"/><text x="878" y="445" text-anchor="start" font-family="Heebo" font-size="16" fill="#12121c">11 ימים אחרי: גרסה מקומית</text><circle cx="862" cy="525" r="18" fill="#f6f3ea" stroke="#3ecfb2" stroke-width="3"/><text x="862" y="572" text-anchor="middle" font-family="Heebo" font-weight="700" font-size="24" fill="#12121c">Open Design</text><text x="862" y="599" text-anchor="middle" font-family="Heebo" font-size="16" fill="#6d6d80">77K stars · 1M+ התקנות · גרסה ראשונה ב-$200</text><circle cx="300" cy="525" r="10" fill="none" stroke="#6d6d80" stroke-width="2"/><text x="300" y="565" text-anchor="middle" font-family="Heebo" font-size="20" fill="#6d6d80">Sketch</text><text x="300" y="590" text-anchor="middle" font-family="Heebo" font-size="16" fill="#6d6d80">Mac בלבד, Figma ניצחה אותה בענן</text><rect x="40" y="630" width="1120" height="1" fill="#e4e4dc"/></svg>