<svg xmlns="http://www.w3.org/2000/svg" viewBox="0 0 1200 675" width="1200" height="675"><rect x="0" y="0" width="1200" height="675" fill="#f6f3ea"/><text x="1160" y="70" text-anchor="end" font-family="Frank Ruhl Libre" font-weight="700" font-size="34" fill="#12121c">יממה אחת, שלושה agents</text><text x="1160" y="106" text-anchor="end" font-family="Heebo" font-size="18" fill="#6d6d80">מתי כל אחד עובד, ובמה הוא נוגע</text><line x1="80" y1="160" x2="80" y2="560" stroke="#e4e4dc" stroke-width="1"/><line x1="275" y1="160" x2="275" y2="560" stroke="#e4e4dc" stroke-width="1"/><line x1="470" y1="160" x2="470" y2="560" stroke="#e4e4dc" stroke-width="1"/><line x1="665" y1="160" x2="665" y2="560" stroke="#e4e4dc" stroke-width="1"/><line x1="860" y1="160" x2="860" y2="560" stroke="#e4e4dc" stroke-width="1"/><line x1="80" y1="560" x2="860" y2="560" stroke="#12121c" stroke-width="2"/><text x="80" y="590" text-anchor="middle" font-family="Heebo" font-size="16" fill="#6d6d80">00:00</text><text x="275" y="590" text-anchor="middle" font-family="Heebo" font-size="16" fill="#6d6d80">06:00</text><text x="470" y="590" text-anchor="middle" font-family="Heebo" font-size="16" fill="#6d6d80">12:00</text><text x="665" y="590" text-anchor="middle" font-family="Heebo" font-size="16" fill="#6d6d80">18:00</text><text x="860" y="590" text-anchor="middle" font-family="Heebo" font-size="16" fill="#6d6d80">24:00</text><rect x="80" y="180" width="780" height="40" rx="6" fill="none" stroke="#e4e4dc" stroke-width="2"/><rect x="372" y="180" width="82" height="40" rx="6" fill="#12121c"/><rect x="535" y="180" width="97" height="40" rx="6" fill="#12121c"/><text x="1160" y="196" text-anchor="end" font-family="Heebo" font-weight="700" font-size="22" fill="#12121c">Claude Code</text><text x="1160" y="222" text-anchor="end" font-family="Heebo" font-size="16" fill="#6d6d80">רץ כשאתם בסשן · repo אחד</text><rect x="80" y="320" width="780" height="40" rx="6" fill="none" stroke="#e4e4dc" stroke-width="2"/><rect x="80" y="320" width="32" height="40" rx="6" fill="none" stroke="#12121c" stroke-width="2"/><line x1="114" y1="340" x2="306" y2="340" stroke="#6d6d80" stroke-width="1" stroke-dasharray="6 6"/><text x="210" y="310" text-anchor="middle" font-family="Heebo" font-size="15" fill="#6d6d80">המכונה נרדמה</text><rect x="308" y="320" width="552" height="40" rx="6" fill="none" stroke="#12121c" stroke-width="2"/><text x="1160" y="336" text-anchor="end" font-family="Heebo" font-weight="700" font-size="22" fill="#12121c">OpenClaw ודומיו</text><text x="1160" y="362" text-anchor="end" font-family="Heebo" font-size="16" fill="#6d6d80">המכונה שלכם · המפתחות שלכם</text><rect x="80" y="460" width="780" height="40" rx="6" fill="#ff7aa8"/><circle cx="178" cy="480" r="11" fill="#f6f3ea" stroke="#12121c" stroke-width="2"/><circle cx="356" cy="480" r="11" fill="#f6f3ea" stroke="#12121c" stroke-width="2"/><circle cx="503" cy="480" r="11" fill="#f6f3ea" stroke="#12121c" stroke-width="2"/><circle cx="714" cy="480" r="11" fill="#f6f3ea" stroke="#12121c" stroke-width="2"/><text x="503" y="446" text-anchor="middle" font-family="Heebo" font-size="15" fill="#12121c">עצירה לאישור לפי Custom Rules</text><text x="1160" y="470" text-anchor="end" font-family="Heebo" font-weight="700" font-size="22" fill="#12121c">dot</text><text x="1160" y="496" text-anchor="end" font-family="Heebo" font-size="16" fill="#6d6d80">מחשב ענן משלו · 4,000+ אפליקציות</text><text x="1160" y="520" text-anchor="end" font-family="Heebo" font-size="16" fill="#6d6d80">24/7 · GPT-6 Astra</text><text x="1160" y="640" text-anchor="end" font-family="Heebo" font-size="18" fill="#12121c">ככל שהפס ארוך יותר, יותר עבודה קורית כשאתם לא מסתכלים.</text></svg>